<svg id="svg" xmlns="http://www.w3.org/2000/svg" xmlns:xlink="http://www.w3.org/1999/xlink" width="600" height="100"><polygon points="0,50 2,48.885 8,48.351 14,48.102 20,47.937 26,47.824 32,47.406 38,47.169 44,47.435 50,46.387 56,46.176 62,45.659 68,45.401 74,30.396 80,32.22 86,30.507 92,17.119 98,25.124 104,24.144 110,18.292 116,43.987 122,36.714 128,30.249 134,25.879 140,30.266 146,14.227 152,10.103 158,43.611 164,17.586 170,36.624 176,33.382 182,30.306 188,14.993 194,25.777 200,15.72 206,12.784 212,29.59 218,34.506 224,32.071 230,28.763 236,27.216 242,17.357 248,24.069 254,22.893 260,13.145 266,33.302 272,32.689 278,29.523 284,21.707 290,30.296 296,14.224 302,10.042 308,43.665 314,17.802 320,35.896 326,33 332,30.373 338,14.687 344,18.697 350,15.608 356,13.049 362,29.509 368,34.857 374,30.542 380,32.953 386,27.724 392,17.253 398,23.204 404,17.207 410,17.767 416,44.824 422,36.99 428,30.669 434,25.964 440,30.898 446,16.821 452,17.299 458,45.136 464,16.925 470,41.743 476,31.36 482,30.978 488,44.859 494,45.935 500,45.1 506,45.514 512,45.47 518,45.625 524,45.43 530,46.638 536,46.263 542,46.899 548,48.004 554,47.969 560,48.253 566,48.593 572,49.649 578,50 584,50 590,50 596,50 600,50" fill="#26A69A"></polygon><polygon points="600,50 596,50 590,50 584,50 578,50 572,50.436 566,51.698 560,52.238 554,52.771 548,53.854 542,54.344 536,53.981 530,54.657 524,55.316 518,55.501 512,56.667 506,56.931 500,56.876 494,57.384 488,55.162 482,70.578 476,67.989 470,57.677 464,77.623 458,56.718 452,76.578 446,77.541 440,69.72 434,73.257 428,69.986 422,63.001 416,57.829 410,77.364 404,82.869 398,75.378 392,77.452 386,73.592 380,71.477 374,70.342 368,65.897 362,64.148 356,80.977 350,79.451 344,82.571 338,78.693 332,71.051 326,69.504 320,64.139 314,76.022 308,57.903 302,81.554 296,80.151 290,71.214 284,76.741 278,76.744 272,65.108 266,65.419 260,81.491 254,71.855 248,76.395 242,78.403 236,75.812 230,70.857 224,68.359 218,65.787 212,64.343 206,82.114 200,78.787 194,75.041 188,78.505 182,71.262 176,69.37 170,64.455 164,76.323 158,57.796 152,81.435 146,79.57 140,71.613 134,72.882 128,70.082 122,63.008 116,57.57 110,76.714 104,71.368 98,76.65 92,77.307 86,70.059 80,70.212 74,70.004 68,56.227 62,56.595 56,56.126 50,55.174 44,54.776 38,52.962 32,52.948 26,52.209 20,52.966 14,52.464 8,52.42 2,52.216 0,50" fill="#009688"></polygon></svg>