<svg id="svg" xmlns="http://www.w3.org/2000/svg" xmlns:xlink="http://www.w3.org/1999/xlink" width="600" height="100"><polygon points="0,50 2,33.179 5,37.065 8,42.337 11,46.266 14,47.905 17,44.713 20,45.276 23,31.7 26,33.232 29,32.213 32,41.205 35,45.076 38,48.505 41,44.481 44,42.551 47,19.548 50,19.411 53,15.944 56,19.807 59,20.367 62,29.979 65,30.365 68,19.315 71,19.327 74,14.828 77,18.897 80,19.652 83,19.592 86,30.186 89,19.019 92,12.735 95,17.299 98,17.335 101,18.698 104,12.735 107,20.801 110,18.385 113,5.698 116,17.596 119,15.771 122,19.505 125,18.091 128,4.921 131,13.896 134,14.238 137,20.81 140,15.215 143,18.527 146,14.929 149,1.549 152,14.931 155,15.149 158,12.434 161,17.853 164,11.206 167,15.146 170,16.011 173,10.303 176,16.512 179,11.046 182,15.913 185,1.497 188,2.696 191,15.204 194,16.251 197,15.16 200,13.013 203,1.202 206,14.21 209,3.485 212,13.676 215,9.827 218,12.555 221,19.135 224,1.389 227,7.011 230,18.018 233,11.583 236,11.714 239,11.81 242,19.606 245,17.326 248,10.878 251,16.261 254,12.486 257,11.264 260,17.813 263,17.786 266,18.164 269,15.515 272,3.891 275,9.476 278,1.419 281,20.801 284,16.742 287,7.982 290,18.062 293,20.619 296,2.083 299,0.429 302,3.175 305,15.816 308,16.226 311,14.902 314,9.807 317,1.588 320,18.309 323,4.138 326,4.144 329,16.336 332,16.531 335,18.341 338,17.746 341,4.866 344,6.639 347,6.27 350,20.393 353,9.537 356,23.987 359,24.759 362,7.808 365,15.44 368,34.561 371,26.898 374,1.913 377,0.917 380,36.052 383,7.124 386,24.182 389,35.696 392,35.08 395,30.673 398,20.674 401,23 404,38.709 407,32.587 410,46.04 413,36.8 416,41.873 419,42.781 422,23.817 425,31.345 428,21.228 431,21.774 434,3.45 437,4.727 440,5.199 443,19.365 446,11.111 449,0.002 452,3.876 455,14.986 458,6.9 461,4.755 464,2.658 467,1.944 470,0.418 473,3.796 476,3.398 479,9.801 482,17.43 485,0.754 488,1.102 491,18.465 494,4.155 497,3.081 500,8.73 503,17.221 506,4.294 509,3.357 512,2.196 515,7.147 518,43.474 521,27.432 524,16.696 527,29.845 530,42.374 533,33.311 536,35.638 539,43.578 542,44.653 545,19.063 548,27.135 551,26.201 554,41.058 557,17.879 560,37.309 563,46.269 566,44.147 569,40.212 572,28.189 575,26.872 578,36.935 581,44.525 584,47.717 587,37.235 590,41.859 593,41.727 596,25.735 599,19.93 600,50" fill="#26A69A"></polygon><polygon points="600,50 599,82.484 596,71.223 593,59.793 590,58.603 587,63.625 584,52.94 581,55.185 578,67.432 575,72.594 572,70.006 569,64.954 566,56.769 563,54.991 560,63.539 557,64.606 554,60.666 551,73.97 548,70.92 545,83.809 542,56.03 539,56.926 536,64.464 533,63.907 530,56.078 527,71.133 524,83.389 521,73.222 518,56.517 515,96.268 512,92.444 509,94.428 506,97.234 503,97.543 500,93.875 497,96.201 494,99.056 491,92.364 488,88.773 485,96.881 482,89.352 479,93.802 476,94.951 473,98.961 470,93.292 467,99.724 464,98.228 461,82.141 458,92.885 455,89.648 452,98.584 449,97.737 446,99.04 443,92.633 440,83.772 437,98.438 434,89.38 431,92.578 428,82.776 425,70.241 422,74.529 419,57.916 416,58.455 413,62.796 410,54.692 407,68.311 404,63.158 401,76.625 398,75.786 395,75.073 392,64.586 389,64.612 386,71.651 383,81.741 380,64.734 377,89.539 374,98.183 371,76.271 368,67.641 365,88.367 362,85.62 359,74.908 356,73.102 353,91.232 350,75.514 347,95.502 344,94.27 341,95.329 338,81.851 335,97.301 332,90.739 329,90.445 326,99.998 323,98.54 320,92.477 317,96.735 314,94.29 311,79.631 308,92.184 305,93.204 302,99.323 299,96.564 296,96.953 293,93.137 290,79.828 287,94.034 284,90.219 281,92.657 278,96.043 275,91.927 272,92.879 269,90.807 266,93.988 263,80.656 260,92.635 257,87.962 254,91.876 251,89.369 248,91.879 245,88.847 242,90.259 239,87.47 236,85.42 233,91.681 230,86.256 227,94.836 224,92.235 221,91.812 218,95.116 215,82.986 212,85.613 209,87.181 206,93.082 203,91.531 200,91.351 197,87.14 194,88.705 191,84.169 188,92.773 185,95.528 182,97.022 179,95.735 176,85.815 173,91.966 170,90.932 167,94.353 164,86.603 161,94.508 158,91.237 155,87.817 152,98.55 149,94.241 146,91.22 143,87.962 140,83.855 137,81.578 134,87.723 131,93.092 128,90.938 125,86.655 122,88.416 119,88.376 116,81.81 113,86.768 110,88.399 107,87.289 104,87.465 101,87.733 98,89.16 95,88.405 92,92.34 89,80.138 86,88.904 83,88.21 80,88.28 77,87.35 74,84.624 71,88.986 68,89.211 65,75.859 62,75.565 59,87.743 56,88.255 53,83.769 50,86.522 47,88.815 44,58.44 41,55.071 38,52.641 35,53.542 32,60.811 29,72.902 26,70.473 23,71.678 20,54.985 17,55.612 14,52.393 11,54.507 8,54.947 5,64.058 2,69.484 0,50" fill="#009688"></polygon></svg>