<svg id="svg" xmlns="http://www.w3.org/2000/svg" xmlns:xlink="http://www.w3.org/1999/xlink" width="600" height="100"><polygon points="0,50 2,35.374 5,36.575 8,36.362 11,36.676 14,34.935 17,38.515 20,35.605 23,40.891 26,34.882 29,41.208 32,34.267 35,43.843 38,34.912 41,42.711 44,33.8 47,41.013 50,34.251 53,40.906 56,34.142 59,34.921 62,30.444 65,40.881 68,34.552 71,36.296 74,33.115 77,42.21 80,33.394 83,35.817 86,33.65 89,35.225 92,35.165 95,35.504 98,30.432 101,29.385 104,32.745 107,30.498 110,36.24 113,31.427 116,34.796 119,32.231 122,32.13 125,29.869 128,34.937 131,33.089 134,31.783 137,29.373 140,33.241 143,31.117 146,33.548 149,27.486 152,32.52 155,30.992 158,30.917 161,30.168 164,30.826 167,28.532 170,29.657 173,27.492 176,29.556 179,28.046 182,21.951 185,43.744 188,46.397 191,43.877 194,21.297 197,4.179 200,21.362 203,11.821 206,21.555 209,10.835 212,6.02 215,14.676 218,7.225 221,6.396 224,6.79 227,4.002 230,7.123 233,8.598 236,4.677 239,6.793 242,5.989 245,5.057 248,12.001 251,9.206 254,5.194 257,1.872 260,3.389 263,11.163 266,1.936 269,5.821 272,7.84 275,8.025 278,8.878 281,0.188 284,10.55 287,33.522 290,40.236 293,35.367 296,36.379 299,14.305 302,33.051 305,18.428 308,23.128 311,23.227 314,21.187 317,19.933 320,18.077 323,21.655 326,34.402 329,17.067 332,25.037 335,18.314 338,18.03 341,18.674 344,22.524 347,23.032 350,35.053 353,25.308 356,25.719 359,28.444 362,22.52 365,30.2 368,25.508 371,28.944 374,17.787 377,21.161 380,21.597 383,28.986 386,29.366 389,19.499 392,16.106 395,9.102 398,4.683 401,12.424 404,7.628 407,8.33 410,6.337 413,9.561 416,10.509 419,19.861 422,5.177 425,21.896 428,17.825 431,23.283 434,12.874 437,21.948 440,11.961 443,18.921 446,5.736 449,24.185 452,15.407 455,26.724 458,17.883 461,18.147 464,6.409 467,20.047 470,8.578 473,20.152 476,11.964 479,12.711 482,1.767 485,3.934 488,26.324 491,30.981 494,28.11 497,31.509 500,29.735 503,30.93 506,27.705 509,32.845 512,28.214 515,30.49 518,28.569 521,32.976 524,31.393 527,30.576 530,28.241 533,32.127 536,34.081 539,35.631 542,33.365 545,37.41 548,32.517 551,39.478 554,34.209 557,41.94 560,32.875 563,43.832 566,35.895 569,44.536 572,36.488 575,44.415 578,40.236 581,45.381 584,44.36 587,49.188 590,49.838 593,49.991 596,49.998 599,50 600,50" fill="#26A69A"></polygon><polygon points="600,50 599,50 596,50.002 593,50.009 590,50.13 587,50.832 584,56.969 581,52.901 578,60.812 575,54.683 572,63.24 569,56.482 566,65.071 563,56.691 560,66.148 557,57.497 554,67.676 551,62.392 548,67.674 545,62.43 542,67.369 539,66.185 536,66.205 533,68.481 530,70.409 527,71.349 524,67.242 521,67.863 518,69.508 515,69.537 512,70.459 509,66.673 506,68.52 503,71.948 500,71.596 497,70.084 494,69.057 491,69.028 488,72.203 485,93.483 482,97.229 479,91.928 476,88.573 473,79.341 470,91.097 467,79.12 464,93.193 461,78.046 458,82.837 455,73.161 452,85.886 449,75.717 446,95.383 443,81.464 440,86.917 437,77.811 434,85.947 431,76.817 428,82.294 425,78.993 422,95.496 419,84.001 416,90.314 413,87.845 410,91.6 407,91.953 404,92.787 401,91.38 398,93.948 395,92.654 392,86.656 389,76.886 386,70.02 383,72.182 380,75.429 377,73.862 374,81.459 371,71.591 368,71.75 365,69.757 362,80.739 359,71.698 356,68.512 353,68.526 350,65.44 347,75.14 344,77.522 341,78.85 338,78.806 335,82.44 332,76.543 329,81.722 326,68.57 323,79.547 320,83.417 317,77.939 314,76.871 311,78.656 308,79.933 305,83.51 302,69.951 299,83.392 296,62.74 293,64.993 290,58.914 287,64.516 284,89.124 281,98.506 278,90.457 275,91.034 272,94.121 269,93.89 266,96.454 263,91.704 260,95.906 257,96.883 254,97.623 251,91.948 248,92.892 245,96.391 242,94.543 239,95.053 236,96.625 233,92.673 230,92.236 227,95.636 224,92.201 221,92.029 218,90.681 215,86.226 212,94.406 209,87.267 206,75.903 203,88.988 200,81.342 197,95.493 194,76.48 191,61.429 188,53.516 185,54.715 182,77.4 179,75.621 176,73.022 173,73.172 170,69.403 167,70.232 164,70.082 161,72.623 158,68.535 155,72.629 152,69.334 149,71.501 146,66.85 143,68.129 140,68.176 137,67.987 134,68.245 131,68.756 128,69.119 125,70.19 122,64.943 119,68.985 116,69.812 113,67.86 110,67.729 107,68.568 104,67.667 101,68.343 98,68.027 95,65.993 92,67.502 89,65.72 86,66.02 83,64.737 80,68.181 77,57.068 74,68.082 71,63.724 68,69.699 65,57.417 62,65.785 59,63.75 56,67.285 53,56.862 50,66.927 47,58.104 44,66.838 41,58.031 38,66.653 35,56.891 32,65.833 29,59.39 26,65.599 23,58.548 20,64.641 17,61.514 14,65.497 11,63.297 8,63.615 5,63.184 2,64.626 0,50" fill="#009688"></polygon></svg>