<svg id="svg" xmlns="http://www.w3.org/2000/svg" xmlns:xlink="http://www.w3.org/1999/xlink" width="600" height="100"><polygon points="0,50 2,45.277 5,45.927 8,45.784 11,46.217 14,46.396 17,39.598 20,44.322 23,42.61 26,41.989 29,42.096 32,37.686 35,35.835 38,41.006 41,39.583 44,45.029 47,44.705 50,44.724 53,44.768 56,14.56 59,22.073 62,26.067 65,25.746 68,28.235 71,42.471 74,40.086 77,37.727 80,27.78 83,13.66 86,16.609 89,22.83 92,22.623 95,37.076 98,40.666 101,29.956 104,41.724 107,31.18 110,18.526 113,14.499 116,16.939 119,13.498 122,33.862 125,33.008 128,38.222 131,40.537 134,19.746 137,0.009 140,20.712 143,19.391 146,29.832 149,40.645 152,42.284 155,27.878 158,41.333 161,18.303 164,15.623 167,18.459 170,20.03 173,36.536 176,43.011 179,43.437 182,38.138 185,33.992 188,14.645 191,21.219 194,16.751 197,21.14 200,38.3 203,41.364 206,35.129 209,42.592 212,5.579 215,13.133 218,22.795 221,10.852 224,11.279 227,33.147 230,39.127 233,37.772 236,41.701 239,10.654 242,15.524 245,15.181 248,30.246 251,29.291 254,41.91 257,42.038 260,34.024 263,42.9 266,13.225 269,22.357 272,18.787 275,24.042 278,35.397 281,38.657 284,42.171 287,33.559 290,22.63 293,10.628 296,21.297 299,25.822 302,25.54 305,41.212 308,40.41 311,35.805 314,42.163 317,15.073 320,18.843 323,18.394 326,21.761 329,27.373 332,32.779 335,36.073 338,40.392 341,44.09 344,13.242 347,20.583 350,20.18 353,15.627 356,34.816 359,40.086 362,39.049 365,38.734 368,38.76 371,17.13 374,19.16 377,13.654 380,29.5 383,35.077 386,38.821 389,41.75 392,29.265 395,9.235 398,19.289 401,28.387 404,19.365 407,35.283 410,42.932 413,37.402 416,37.695 419,43.324 422,17.2 425,17.612 428,19.624 431,14.671 434,33.481 437,35.817 440,38.774 443,44.008 446,37.248 449,0.003 452,19.849 455,19.174 458,26.044 461,40.105 464,44.379 467,37.787 470,41.377 473,43.088 476,45.023 479,45.648 482,45.874 485,47.406 488,48.785 491,49.667 494,48.755 497,45.415 500,45.461 503,43.68 506,45.512 509,45.415 512,45.944 515,45.735 518,46.365 521,46.642 524,46.846 527,49.066 530,49.66 533,49.054 536,46.983 539,45.903 542,45.343 545,44.791 548,45.145 551,47.29 554,48.982 557,49.06 560,48.453 563,45.694 566,45.952 569,46.251 572,46.645 575,46.237 578,48.462 581,49.078 584,49.367 587,48.154 590,46.129 593,45.988 596,44.904 599,46.341 600,50" fill="#26A69A"></polygon><polygon points="600,50 599,54.015 596,53.516 593,53.166 590,53.734 587,51.546 584,50.952 581,50.925 578,51.575 575,54.984 572,55.174 569,54.361 566,54.648 563,54.654 560,51.208 557,50.919 554,50.926 551,51.801 548,53.766 545,54.552 542,53.474 539,53.815 536,53.322 533,50.984 530,50.937 527,51.257 524,53.917 521,55.864 518,55.443 515,55.145 512,54.428 509,54.218 506,54.068 503,53.969 500,55.414 497,53.983 494,51.225 491,50.925 488,51.555 485,53.87 482,55.386 479,54.922 476,55.026 473,55.815 470,58.756 467,61.078 464,55.55 461,63.156 458,83.502 455,90.987 452,75.038 449,92.395 446,69.028 443,56.86 440,61.877 437,66.852 434,65.228 431,77.498 428,82.501 425,85.144 422,91.971 419,55.248 416,59.828 413,61.79 410,57.78 407,71.504 404,81.487 401,82.584 398,81.177 395,90.065 392,68.634 389,60.301 386,60.922 383,65.756 380,77.402 377,85.393 374,86.356 371,80.632 368,64.151 365,61.409 362,60.507 359,57.167 356,63.977 353,74.255 350,77.377 347,82.858 344,99.998 341,58.264 338,62.74 335,63.063 332,67.258 329,71.28 326,81.961 323,90.556 320,89.681 317,94.457 314,56.198 311,62.395 308,58.965 305,62.257 302,78.752 299,85.79 296,84.39 293,89.175 290,77.394 287,67.488 284,58.33 281,59.042 278,63.902 275,76.691 272,95.789 269,82.596 266,94.333 263,55.896 260,63.388 257,56.917 254,56.287 251,64.081 248,79.779 245,83.728 242,89.252 239,99.979 236,60.048 233,63.834 230,67.044 227,71.101 224,76.657 221,83.383 218,84.453 215,94.551 212,82.39 209,57.196 206,63.483 203,58.475 200,61.928 197,78.629 194,80.151 191,83.733 188,87.546 185,69.287 182,65.962 179,58.806 176,59.19 173,66.835 170,88.135 167,83.775 164,86.061 161,77.385 158,57.191 155,64.786 152,56.155 149,57.523 146,68.344 143,75.493 140,72.275 137,88.142 134,99.651 131,62.219 128,60.802 125,68.048 122,70.769 119,84.749 116,83.519 113,89.36 110,88.858 107,68.364 104,58.231 101,66.068 98,57.787 95,65.521 92,76.953 89,77.213 86,78.638 83,94.901 80,70.618 77,60.146 74,61.31 71,62.35 68,70.883 65,79.674 62,82.149 59,84.439 56,81.18 53,54.292 50,53.696 47,54.677 44,55.489 41,59.387 38,61.551 35,59.746 32,63.49 29,59.007 26,59.688 23,59.628 20,56.996 17,55.345 14,55.74 11,55.656 8,55.122 5,55.258 2,54.079 0,50" fill="#009688"></polygon></svg>