<svg id="svg" xmlns="http://www.w3.org/2000/svg" xmlns:xlink="http://www.w3.org/1999/xlink" width="600" height="100"><polygon points="0,50 2,37.373 5,40.347 8,32.771 11,43.257 14,33.617 17,30.127 20,43.292 23,40.016 26,33.276 29,37.997 32,37.947 35,43.256 38,36.456 41,27.972 44,39.705 47,38.29 50,33.766 53,34.12 56,37.186 59,39.671 62,40.741 65,26.74 68,41.003 71,36.998 74,42.293 77,36.819 80,37.195 83,35.082 86,38.687 89,25.696 92,27.554 95,29.446 98,39.519 101,37.579 104,24.492 107,35.024 110,41.356 113,36.925 116,31.728 119,35.82 122,40.291 125,41.237 128,32.312 131,32.387 134,37.375 137,42.192 140,34.335 143,32.433 146,39.246 149,41.655 152,28.604 155,33.722 158,32.491 161,30.714 164,38.191 167,26.836 170,29.903 173,34.291 176,39.973 179,29.17 182,30.846 185,38.957 188,38.927 191,22.655 194,34.801 197,28.661 200,22.183 203,21.344 206,26.701 209,33.559 212,32.729 215,36.769 218,39 221,35.724 224,41.959 227,39.854 230,31.77 233,36.829 236,14.488 239,22.778 242,27.385 245,31.517 248,25.319 251,30.702 254,24.107 257,32.26 260,32.788 263,34.116 266,30.229 269,27.736 272,32.733 275,25.916 278,33.405 281,35.1 284,36.615 287,31.006 290,37.355 293,18.932 296,35.231 299,34.743 302,29.935 305,28.377 308,26.505 311,35.692 314,26.544 317,26.761 320,32.764 323,31.062 326,31.892 329,39.207 332,21.744 335,38.396 338,39.037 341,35.338 344,36.644 347,24.837 350,23.701 353,28.441 356,26.39 359,33.263 362,28.059 365,24.809 368,30.962 371,22.798 374,32.89 377,33.173 380,31.795 383,34.544 386,29.97 389,20.863 392,18.846 395,17.754 398,27.33 401,28.056 404,25.885 407,30.214 410,14.601 413,25.633 416,37.286 419,24.147 422,28.221 425,30.258 428,23.581 431,28.395 434,26.9 437,32.747 440,26.569 443,28.064 446,31.454 449,21.291 452,27.112 455,27.13 458,18.306 461,24.774 464,23.433 467,27.585 470,13.687 473,20.461 476,22.662 479,26.553 482,24.451 485,30.069 488,31.322 491,32.561 494,31.601 497,16.379 500,25.659 503,23.424 506,33.27 509,37.897 512,33.185 515,44.823 518,42.967 521,32.655 524,40.523 527,39.041 530,44.971 533,42.163 536,31.261 539,45.921 542,43.178 545,43.611 548,40.497 551,41.374 554,46.684 557,43.906 560,41.492 563,44.609 566,43.643 569,47.675 572,43.481 575,44.067 578,48.093 581,47.076 584,49.248 587,49.899 590,49.985 593,49.997 596,49.998 599,50 600,50" fill="#26A69A"></polygon><polygon points="600,50 599,50 596,50.002 593,50.006 590,50.024 587,50.133 584,51.352 581,55.367 578,52.951 575,59.03 572,58.678 569,53.461 566,58.327 563,57.22 560,61.075 557,58.077 554,54.391 551,61.424 548,62.767 545,59.082 542,60.645 539,55.843 536,73.56 533,60.509 530,57.376 527,62.712 524,63.403 521,70.692 518,57.82 515,56.642 512,65.741 509,64.331 506,81.003 503,81.874 500,86.238 497,79.807 494,76.021 491,70.393 488,75.501 485,73.273 482,77.895 479,76.35 476,86.362 473,79.137 470,87.637 467,87.926 464,93.089 461,77.974 458,91.737 455,82.225 452,84.695 449,82.054 446,74.429 443,78.105 440,78.049 437,77.774 434,72.656 431,75.101 428,76.599 425,79.599 422,78.229 419,76.462 416,71.503 413,84.436 410,92.397 407,69.191 404,74.718 401,72.136 398,71.811 395,79.761 392,73.526 389,75.606 386,73.491 383,70.441 380,74.966 377,71.86 374,76.41 371,78.336 368,72.963 365,77.409 362,77.661 359,70.535 356,74.776 353,69.205 350,78.101 347,78.54 344,72.51 341,70.061 338,67.467 335,66.223 332,90.755 329,64.862 326,73.265 323,72.589 320,73.984 317,76.315 314,73.148 311,67.905 308,75.801 305,72.723 302,69.487 299,69.366 296,70.222 293,96.01 290,68.919 287,72.301 284,67.21 281,70.36 278,73.546 275,72.603 272,77.318 269,77.963 266,70.491 263,70.409 260,72.719 257,77.557 254,77.44 251,84.557 248,78.02 245,70.644 242,74.233 239,71.678 236,86.139 233,66.096 230,73.457 227,61.963 224,61.865 221,67.328 218,66.093 215,66.614 212,71.242 209,71.146 206,72.861 203,75.374 200,70.036 197,69.357 194,70.47 191,78.88 188,64.74 185,63.57 182,73.317 179,76.369 176,61.922 173,70.424 170,73.924 167,79.831 164,65.089 161,68.037 158,72.897 155,70.416 152,76.003 149,61.047 146,63.826 143,75.04 140,68.733 137,61.113 134,67.483 131,72.24 128,68.387 125,60.905 122,62.109 119,64.272 116,70.338 113,64.829 110,58.722 107,68.43 104,77.998 101,69.728 98,61.14 95,73.862 92,82.062 89,76.067 86,66.686 83,67.154 80,64.154 77,65.916 74,59.392 71,61.377 68,61.06 65,78.082 62,59.613 59,61.33 56,66.177 53,70.346 50,71.193 47,66.251 44,60.892 41,73.503 38,70.988 35,58.066 32,63.545 29,65.392 26,68.213 23,61.374 20,59.386 17,75.084 14,72.511 11,58.984 8,73.491 5,63.251 2,66.04 0,50" fill="#009688"></polygon></svg>