<?xml version="1.0" encoding="UTF-8" standalone="no"?>
<!DOCTYPE svg PUBLIC "-//W3C//DTD SVG 1.1//EN" "http://www.w3.org/Graphics/SVG/1.1/DTD/svg11.dtd">
<svg width="100%" height="100%" viewBox="0 0 1920 512" version="1.1" xmlns="http://www.w3.org/2000/svg" xmlns:xlink="http://www.w3.org/1999/xlink" xml:space="preserve" xmlns:serif="http://www.serif.com/" style="fill-rule:evenodd;clip-rule:evenodd;stroke-linejoin:round;stroke-miterlimit:2;">
    <g id="Ebene_3">
        <rect x="0" y="0" width="1920" height="502.5" style="fill:url(#_Linear1);"/>
    </g>
    <g id="MountainsBack">
        <path id="Mt1_3_" d="M595.985,468L342.602,344.885L125.118,454.75L0,414.186L0,468L595.985,468Z" style="fill:rgb(63,0,181);fill-rule:nonzero;"/>
        <path id="Mt1_4_" d="M458.637,469L712.021,383.938L929.504,459.73L1054.53,431.69L1197.99,469L458.637,469Z" style="fill:rgb(63,0,181);fill-rule:nonzero;"/>
        <path id="Mt1_5_" d="M1852,466L1607.52,370.072L1397.68,455.51L1277.05,423.916L1138.64,466L1852,466Z" style="fill:rgb(63,0,181);fill-rule:nonzero;"/>
    </g>
    <g id="Stars">
        <path d="M445.077,65.526L443.949,64.873L443.948,63.57L445.073,62.921L446.198,63.574L446.201,64.877L445.077,65.526Z" style="fill:rgb(224,242,241);fill-rule:nonzero;"/>
        <path d="M781.941,151.584L780.031,150.477L780.027,148.27L781.934,147.17L783.842,148.276L783.846,150.483L781.941,151.584Z" style="fill:rgb(224,242,241);fill-rule:nonzero;"/>
        <path d="M721.941,138.584L720.031,137.477L720.027,135.27L721.934,134.17L723.842,135.276L723.846,137.483L721.941,138.584Z" style="fill:rgb(224,242,241);fill-rule:nonzero;"/>
        <path d="M342.941,220.584L341.031,219.477L341.027,217.27L342.934,216.17L344.842,217.276L344.846,219.483L342.941,220.584Z" style="fill:rgb(224,242,241);fill-rule:nonzero;"/>
        <path d="M1027.94,218.584L1026.03,217.477L1026.03,215.27L1027.93,214.17L1029.84,215.276L1029.85,217.483L1027.94,218.584Z" style="fill:rgb(224,242,241);fill-rule:nonzero;"/>
        <path d="M880.227,189.458L878.573,188.5L878.571,186.591L880.22,185.64L881.869,186.597L881.873,188.506L880.227,189.458Z" style="fill:rgb(224,242,241);fill-rule:nonzero;"/>
        <path d="M573.227,149.459L571.573,148.5L571.571,146.591L573.22,145.64L574.869,146.597L574.873,148.506L573.227,149.459Z" style="fill:rgb(224,242,241);fill-rule:nonzero;"/>
        <path d="M216.941,67.584L215.031,66.477L215.027,64.27L216.934,63.17L218.842,64.276L218.846,66.483L216.941,67.584Z" style="fill:rgb(224,242,241);fill-rule:nonzero;"/>
        <path d="M1283.94,136.584L1282.03,135.477L1282.03,133.27L1283.93,132.17L1285.84,133.276L1285.85,135.483L1283.94,136.584Z" style="fill:rgb(224,242,241);fill-rule:nonzero;"/>
        <path d="M945.941,108.584L944.031,107.477L944.027,105.27L945.934,104.17L947.842,105.276L947.846,107.483L945.941,108.584Z" style="fill:rgb(224,242,241);fill-rule:nonzero;"/>
        <path d="M1119.6,83.228L1118.66,82.684L1118.66,81.599L1119.6,81.059L1120.54,81.603L1120.54,82.687L1119.6,83.228Z" style="fill:rgb(224,242,241);fill-rule:nonzero;"/>
        <path d="M1771.94,267.584L1770.03,266.477L1770.03,264.27L1771.93,263.17L1773.84,264.275L1773.85,266.482L1771.94,267.584Z" style="fill:rgb(224,242,241);fill-rule:nonzero;"/>
        <path d="M1236.11,238.043L1234.65,237.194L1234.65,235.502L1236.11,234.66L1237.57,235.508L1237.57,237.199L1236.11,238.043Z" style="fill:rgb(224,242,241);fill-rule:nonzero;"/>
        <path d="M1615.94,267.584L1614.03,266.477L1614.03,264.27L1615.93,263.17L1617.84,264.275L1617.85,266.482L1615.94,267.584Z" style="fill:rgb(224,242,241);fill-rule:nonzero;"/>
        <path d="M1744.94,110.584L1743.03,109.477L1743.03,107.27L1744.93,106.17L1746.84,107.276L1746.85,109.483L1744.94,110.584Z" style="fill:rgb(224,242,241);fill-rule:nonzero;"/>
        <path d="M1893.94,32.584L1892.03,31.477L1892.03,29.27L1893.93,28.17L1895.84,29.276L1895.85,31.483L1893.94,32.584Z" style="fill:rgb(224,242,241);fill-rule:nonzero;"/>
        <path d="M1385.46,14.584L1383.84,13.644L1383.83,11.771L1385.45,10.839L1387.07,11.777L1387.07,13.65L1385.46,14.584Z" style="fill:rgb(224,242,241);fill-rule:nonzero;"/>
        <path d="M1827.68,203.068L1826.03,202.11L1826.03,200.201L1827.68,199.25L1829.33,200.207L1829.33,202.116L1827.68,203.068Z" style="fill:rgb(224,242,241);fill-rule:nonzero;"/>
        <path d="M323.961,155.713L322.309,154.756L322.305,152.847L323.953,151.896L325.605,152.853L325.608,154.762L323.961,155.713Z" style="fill:rgb(224,242,241);fill-rule:nonzero;"/>
        <path d="M428.696,174.753L427.043,173.795L427.039,171.886L428.689,170.935L430.34,171.892L430.343,173.801L428.696,174.753Z" style="fill:rgb(224,242,241);fill-rule:nonzero;"/>
        <path d="M1539.94,88.584L1538.03,87.477L1538.03,85.27L1539.93,84.17L1541.84,85.276L1541.85,87.483L1539.94,88.584Z" style="fill:rgb(224,242,241);fill-rule:nonzero;"/>
        <path d="M1438.79,188.906L1437.51,188.163L1437.51,186.684L1438.78,185.947L1440.06,186.688L1440.07,188.168L1438.79,188.906Z" style="fill:rgb(224,242,241);fill-rule:nonzero;"/>
        <path d="M66.941,45.584L65.031,44.477L65.027,42.27L66.934,41.17L68.842,42.276L68.846,44.483L66.941,45.584Z" style="fill:rgb(224,242,241);fill-rule:nonzero;"/>
        <path d="M696.941,13.584L695.031,12.477L695.027,10.27L696.934,9.17L698.842,10.276L698.846,12.483L696.941,13.584Z" style="fill:rgb(224,242,241);fill-rule:nonzero;"/>
        <path d="M89.083,200.446L86.924,199.194L86.919,196.699L89.075,195.456L91.232,196.707L91.237,199.202L89.083,200.446Z" style="fill:rgb(224,242,241);fill-rule:nonzero;"/>
        <path d="M5.941,334.584L4.031,333.477L4.027,331.27L5.934,330.17L7.842,331.275L7.846,333.482L5.941,334.584Z" style="fill:rgb(224,242,241);fill-rule:nonzero;"/>
    </g>
    <g id="MountainsFront">
        <rect id="Bottom" x="0" y="464" width="1920" height="52.5" style="fill:rgb(33,11,110);"/>
        <path id="Mt1" d="M76.636,468L219.5,402.295L342.122,460.841L412.618,439.181L493.5,468L76.636,468Z" style="fill:rgb(33,11,110);fill-rule:nonzero;"/>
        <path id="Mt1_1_" d="M1198,468L1026.86,389.293L879.971,459.424L795.523,433.479L698.637,468L1198,468Z" style="fill:rgb(33,11,110);fill-rule:nonzero;"/>
        <path id="Mt1_2_" d="M1814,468L1643.06,443.871L1495.97,459.424L1412.07,428.646L1314.64,468L1814,468Z" style="fill:rgb(33,11,110);fill-rule:nonzero;"/>
    </g>
    <defs>
        <linearGradient id="_Linear1" x1="0" y1="0" x2="1" y2="0" gradientUnits="userSpaceOnUse" gradientTransform="matrix(3.07693e-14,-502.5,502.5,3.07693e-14,960,502.5)"><stop offset="0" style="stop-color:rgb(92,76,255);stop-opacity:1"/><stop offset="1" style="stop-color:rgb(2,7,64);stop-opacity:1"/></linearGradient>
    </defs>
</svg>
