<?xml version="1.0" encoding="utf-8"?>
<!-- Generator: Adobe Illustrator 16.0.0, SVG Export Plug-In . SVG Version: 6.00 Build 0)  -->
<!DOCTYPE svg PUBLIC "-//W3C//DTD SVG 1.1//EN" "http://www.w3.org/Graphics/SVG/1.1/DTD/svg11.dtd">
<svg version="1.1" id="Ebene_1" xmlns="http://www.w3.org/2000/svg" xmlns:xlink="http://www.w3.org/1999/xlink" x="0px" y="0px"
	 width="1920px" height="512px" viewBox="0 0 1920 512" enable-background="new 0 0 1920 512" xml:space="preserve">
<g id="Ebene_3">
	
		<linearGradient id="SVGID_1_" gradientUnits="userSpaceOnUse" x1="657.6003" y1="389.5098" x2="657.6003" y2="892.0098" gradientTransform="matrix(1 0 0 -1 302.3999 892.0098)">
		<stop  offset="0" style="stop-color:#64FFDA"/>
		<stop  offset="1" style="stop-color:#006064"/>
	</linearGradient>
	<rect x="0" fill="url(#SVGID_1_)" width="1920" height="502.5"/>
</g>
<g id="MountainsBack">
	<polygon id="Mt1_3_" fill="#4DB6AC" points="595.985,468 342.602,344.885 125.118,454.75 0,414.186 0,468 	"/>
	<polygon id="Mt1_4_" fill="#4DB6AC" points="458.637,469 712.021,383.938 929.504,459.73 1054.534,431.69 1197.985,469 	"/>
	<polygon id="Mt1_5_" fill="#4DB6AC" points="1851.996,466 1607.521,370.072 1397.681,455.51 1277.045,423.916 1138.637,466 	"/>
</g>
<g id="Stars">
	<polygon fill="#E0F2F1" points="445.077,65.526 443.949,64.873 443.948,63.57 445.073,62.921 446.198,63.574 446.201,64.877 	"/>
	<polygon fill="#E0F2F1" points="781.941,151.584 780.031,150.477 780.027,148.27 781.934,147.17 783.842,148.276 783.846,150.483 	
		"/>
	<polygon fill="#E0F2F1" points="721.941,138.584 720.031,137.477 720.027,135.27 721.934,134.17 723.842,135.276 723.846,137.483 	
		"/>
	<polygon fill="#E0F2F1" points="342.941,220.584 341.031,219.477 341.027,217.27 342.934,216.17 344.842,217.276 344.846,219.483 	
		"/>
	<polygon fill="#E0F2F1" points="1027.941,218.584 1026.031,217.477 1026.027,215.27 1027.934,214.17 1029.842,215.276 
		1029.846,217.483 	"/>
	<polygon fill="#E0F2F1" points="880.227,189.458 878.573,188.5 878.571,186.591 880.22,185.64 881.869,186.597 881.873,188.506 	
		"/>
	<polygon fill="#E0F2F1" points="573.227,149.459 571.573,148.5 571.571,146.591 573.22,145.64 574.869,146.597 574.873,148.506 	
		"/>
	<polygon fill="#E0F2F1" points="216.941,67.584 215.031,66.477 215.027,64.27 216.934,63.17 218.842,64.276 218.846,66.483 	"/>
	<polygon fill="#E0F2F1" points="1283.941,136.584 1282.031,135.477 1282.027,133.27 1283.934,132.17 1285.842,133.276 
		1285.846,135.483 	"/>
	<polygon fill="#E0F2F1" points="945.941,108.584 944.031,107.477 944.027,105.27 945.934,104.17 947.842,105.276 947.846,107.483 	
		"/>
	<polygon fill="#E0F2F1" points="1119.604,83.228 1118.664,82.684 1118.662,81.599 1119.601,81.059 1120.537,81.603 
		1120.539,82.687 	"/>
	<polygon fill="#E0F2F1" points="1771.941,267.584 1770.031,266.477 1770.027,264.27 1771.934,263.17 1773.842,264.275 
		1773.846,266.482 	"/>
	<polygon fill="#E0F2F1" points="1236.112,238.043 1234.648,237.194 1234.646,235.502 1236.106,234.66 1237.569,235.508 
		1237.572,237.199 	"/>
	<polygon fill="#E0F2F1" points="1615.941,267.584 1614.031,266.477 1614.027,264.27 1615.934,263.17 1617.842,264.275 
		1617.846,266.482 	"/>
	<polygon fill="#E0F2F1" points="1744.941,110.584 1743.031,109.477 1743.027,107.27 1744.934,106.17 1746.842,107.276 
		1746.846,109.483 	"/>
	<polygon fill="#E0F2F1" points="1893.941,32.584 1892.031,31.477 1892.027,29.27 1893.934,28.17 1895.842,29.276 1895.846,31.483 	
		"/>
	<polygon fill="#E0F2F1" points="1385.457,14.584 1383.836,13.644 1383.832,11.771 1385.449,10.839 1387.069,11.777 1387.072,13.65 
			"/>
	<polygon fill="#E0F2F1" points="1827.682,203.068 1826.029,202.11 1826.026,200.201 1827.676,199.25 1829.326,200.207 
		1829.328,202.116 	"/>
	<polygon fill="#E0F2F1" points="323.961,155.713 322.309,154.756 322.305,152.847 323.953,151.896 325.605,152.853 
		325.608,154.762 	"/>
	<polygon fill="#E0F2F1" points="428.696,174.753 427.043,173.795 427.039,171.886 428.689,170.935 430.34,171.892 430.343,173.801 
			"/>
	<polygon fill="#E0F2F1" points="1539.941,88.584 1538.031,87.477 1538.027,85.27 1539.934,84.17 1541.842,85.276 1541.846,87.483 	
		"/>
	<polygon fill="#E0F2F1" points="1438.787,188.906 1437.508,188.163 1437.506,186.684 1438.782,185.947 1440.063,186.688 
		1440.065,188.168 	"/>
	<polygon fill="#E0F2F1" points="66.941,45.584 65.031,44.477 65.027,42.27 66.934,41.17 68.842,42.276 68.846,44.483 	"/>
	<polygon fill="#E0F2F1" points="696.941,13.584 695.031,12.477 695.027,10.27 696.934,9.17 698.842,10.276 698.846,12.483 	"/>
	<polygon fill="#E0F2F1" points="89.083,200.446 86.924,199.194 86.919,196.699 89.075,195.456 91.232,196.707 91.237,199.202 	"/>
	<polygon fill="#E0F2F1" points="5.941,334.584 4.031,333.477 4.027,331.27 5.934,330.17 7.842,331.275 7.846,333.482 	"/>
</g>
<g id="MountainsFront">
	<rect id="Bottom" x="0" y="464" fill="#009688" width="1920" height="52.5"/>
	<polygon id="Mt1" fill="#009688" points="76.636,468 219.5,402.295 342.122,460.841 412.618,439.181 493.5,468 	"/>
	<polygon id="Mt1_1_" fill="#009688" points="1197.996,468 1026.86,389.293 879.971,459.424 795.523,433.479 698.637,468 	"/>
	<polygon id="Mt1_2_" fill="#009688" points="1813.996,468 1643.062,443.871 1495.971,459.424 1412.073,428.646 1314.637,468 	"/>
</g>
</svg>
